<?xml version="1.0" encoding="UTF-8"?>
<svg version="1.1" xmlns="http://www.w3.org/2000/svg" width="500" height="500">
<path d="M0 0 C1.04124023 0.13494873 2.08248047 0.26989746 3.15527344 0.40893555 C18.61843613 2.50384514 33.30827199 6.42799824 48.18310547 11.07128906 C50.03501891 11.64472628 51.89378047 12.19597716 53.75390625 12.7421875 C69.77711046 17.46349669 85.4244763 23.29871013 100.375 30.75 C101.73680981 31.41831396 103.0987949 32.08627083 104.4609375 32.75390625 C111.43911787 36.19321059 118.33965868 39.7427761 125.140625 43.5234375 C127.19603339 44.65175609 129.27037821 45.71699756 131.375 46.75 C131.375 47.41 131.375 48.07 131.375 48.75 C132.220625 48.976875 133.06625 49.20375 133.9375 49.4375 C137.87886856 50.94238618 141.26261859 52.87703255 144.375 55.75 C144.375 56.41 144.375 57.07 144.375 57.75 C145.179375 58.0903125 145.179375 58.0903125 146 58.4375 C151.46557818 61.4579511 155.37477025 64.74931075 157.375 70.75 C158.91889918 82.83434671 153.61865865 91.98885835 147.25 101.875 C146.71246094 102.73609375 146.17492187 103.5971875 145.62109375 104.484375 C142.64996186 109.15223808 142.64996186 109.15223808 141.375 110.75 C140.715 110.75 140.055 110.75 139.375 110.75 C139.1584375 111.27464844 138.941875 111.79929687 138.71875 112.33984375 C136.84706928 115.696899 134.39183738 118.42171391 131.875 121.3125 C127.92602588 125.87421641 127.92602588 125.87421641 124.375 130.75 C123.715 130.75 123.055 130.75 122.375 130.75 C122.375 131.41 122.375 132.07 122.375 132.75 C121.715 132.75 121.055 132.75 120.375 132.75 C120.375 133.41 120.375 134.07 120.375 134.75 C119.715 134.75 119.055 134.75 118.375 134.75 C118.375 135.41 118.375 136.07 118.375 136.75 C117.715 136.75 117.055 136.75 116.375 136.75 C115.99794922 137.63365234 115.99794922 137.63365234 115.61328125 138.53515625 C114.22044599 141.02644202 112.7541428 142.37300414 110.5625 144.1875 C108.24607827 146.11859819 106.06947323 148.05748842 103.94140625 150.19921875 C93.87095844 160.20835486 79.87227423 172.84407585 66.375 177.75 C66.375 178.41 66.375 179.07 66.375 179.75 C65.79492188 180.06453125 65.21484375 180.3790625 64.6171875 180.703125 C61.15929913 182.59754569 57.77170904 184.48265261 54.5 186.6875 C50.86282064 189.08803838 47.09341416 191.13082036 43.25390625 193.1875 C41.15794811 194.32506208 39.09084468 195.51627791 37.04296875 196.73828125 C33.22506027 198.92962826 29.25960228 200.45259153 25.125 201.9375 C24.41859375 202.19724609 23.7121875 202.45699219 22.984375 202.72460938 C15.44709948 205.48684955 8.99596076 207.26069871 1.125 204.6875 C-9.6654132 197.08516343 -12.67341046 184.85897068 -15.2421875 172.48828125 C-15.36851562 171.58464844 -15.49484375 170.68101562 -15.625 169.75 C-14.06745212 168.19245212 -12.55405995 168.60228871 -10.38745117 168.57641602 C-9.48528366 168.56292618 -8.58311615 168.54943634 -7.65361023 168.53553772 C-6.66834854 168.52509933 -5.68308685 168.51466095 -4.66796875 168.50390625 C-2.58398087 168.47092373 -0.4999966 168.43771294 1.58398438 168.40429688 C4.87065729 168.35719449 8.15732054 168.31286426 11.4440918 168.27319336 C32.45335118 168.35742621 32.45335118 168.35742621 52.4375 162.625 C53.44538574 162.17411011 53.44538574 162.17411011 54.47363281 161.71411133 C59.8255458 159.22272558 64.50419051 156.11372986 69.140625 152.44921875 C71.375 150.75 71.375 150.75 73.60546875 149.66796875 C76.20550025 148.31916654 76.41303521 146.44350141 77.375 143.75 C78.875 141.4375 78.875 141.4375 80.375 139.75 C81.035 139.75 81.695 139.75 82.375 139.75 C82.6225 138.925 82.87 138.1 83.125 137.25 C84.0514127 134.65604444 84.96325554 132.57354976 86.25 130.1875 C93.3630638 115.88114987 95.16985853 99.21176871 90.8125 83.6875 C83.82422342 65.01151345 72.37858094 52.02446349 54.5390625 43.375 C41.51333098 37.92423235 28.34058477 37.59196143 14.40234375 37.43359375 C12.86820466 37.41298457 11.33407074 37.39198718 9.79994202 37.37062073 C5.79041775 37.31580882 1.78084577 37.26622184 -2.22875977 37.21777344 C-6.33158541 37.16725707 -10.43434302 37.1117294 -14.53710938 37.05664062 C-22.56634848 36.94956024 -30.59564504 36.84800713 -38.625 36.75 C-41.9411068 26.80167961 -38.38716089 13.37662403 -33.9375 4.3125 C-25.77549175 -4.73188752 -10.79742968 -1.41709567 0 0 Z " fill="#DC0204" transform="translate(202.625,158.25)"/>
<path d="M0 0 C8.41533925 -0.04657674 16.83062361 -0.08199683 25.24606037 -0.10362434 C29.15472822 -0.11401047 33.06330714 -0.12807376 36.97192383 -0.15087891 C40.75207059 -0.17279356 44.53213243 -0.18460739 48.31233788 -0.18975449 C49.74625165 -0.19341713 51.18016138 -0.20056814 52.61403847 -0.21146011 C68.66977115 -0.32844376 80.63451576 1.15194854 92.6640625 12.3671875 C100.49192697 21.18989762 103.4711673 32.10196733 103.24609375 43.66015625 C102.58507158 52.63117135 99.66438513 60.92298093 94 68 C91.80859375 69.27734375 91.80859375 69.27734375 90 70 C90 70.66 90 71.32 90 72 C88.05859375 73.4375 88.05859375 73.4375 85.4375 75 C84.59058594 75.515625 83.74367188 76.03125 82.87109375 76.5625 C69.9296887 83.0420062 52.60491165 81.20978183 38.44067383 81.24023438 C35.64571566 81.25014821 32.85143385 81.28139544 30.05664062 81.3125 C28.27083762 81.31901363 26.48502948 81.32427049 24.69921875 81.328125 C23.45249641 81.3466452 23.45249641 81.3466452 22.18058777 81.36553955 C16.41243302 81.3430282 16.41243302 81.3430282 14.31010437 79.59448242 C11.76800902 76.50058666 11.14192837 72.55771109 10.125 68.75 C9.8681543 67.79851074 9.61130859 66.84702148 9.34667969 65.86669922 C5.89169468 52.44082345 3.9668435 38.70699328 2 25 C1.86577637 24.07703125 1.73155273 23.1540625 1.59326172 22.203125 C0.73676806 16.22814815 -0.03939194 10.34185349 -0.01635742 4.29443359 C-0.01399582 3.48879974 -0.01163422 2.68316589 -0.00920105 1.8531189 C-0.0061647 1.24158966 -0.00312836 0.63006042 0 0 Z " fill="#D20204" transform="translate(164,221)"/>
<path d="M0 0 C-0.33 0.99 -0.66 1.98 -1 3 C-1.66 3 -2.32 3 -3 3 C-3 3.66 -3 4.32 -3 5 C-3.66 5 -4.32 5 -5 5 C-5 5.66 -5 6.32 -5 7 C-5.66 7 -6.32 7 -7 7 C-7 7.66 -7 8.32 -7 9 C-7.66 9 -8.32 9 -9 9 C-9.25136719 9.58910156 -9.50273437 10.17820312 -9.76171875 10.78515625 C-11.15455401 13.27644202 -12.6208572 14.62300414 -14.8125 16.4375 C-17.12892173 18.36859819 -19.30552677 20.30748842 -21.43359375 22.44921875 C-31.50404156 32.45835486 -45.50272577 45.09407585 -59 50 C-59 50.66 -59 51.32 -59 52 C-59.58007812 52.31453125 -60.16015625 52.6290625 -60.7578125 52.953125 C-64.21570087 54.84754569 -67.60329096 56.73265261 -70.875 58.9375 C-74.51217936 61.33803838 -78.28158584 63.38082036 -82.12109375 65.4375 C-84.21705189 66.57506208 -86.28415532 67.76627791 -88.33203125 68.98828125 C-92.14993973 71.17962826 -96.11539772 72.70259153 -100.25 74.1875 C-100.95640625 74.44724609 -101.6628125 74.70699219 -102.390625 74.97460938 C-109.92790052 77.73684955 -116.37903924 79.51069871 -124.25 76.9375 C-135.0404132 69.33516343 -138.04841046 57.10897068 -140.6171875 44.73828125 C-140.74351562 43.83464844 -140.86984375 42.93101562 -141 42 C-139.44245212 40.44245212 -137.92905995 40.85228871 -135.76245117 40.82641602 C-134.86028366 40.81292618 -133.95811615 40.79943634 -133.02861023 40.78553772 C-131.5507177 40.76988014 -131.5507177 40.76988014 -130.04296875 40.75390625 C-127.95898087 40.72092373 -125.8749966 40.68771294 -123.79101562 40.65429688 C-120.50434271 40.60719449 -117.21767946 40.56286426 -113.9309082 40.52319336 C-92.92164882 40.60742621 -92.92164882 40.60742621 -72.9375 34.875 C-72.26557617 34.57440674 -71.59365234 34.27381348 -70.90136719 33.96411133 C-65.5494542 31.47272558 -60.87080949 28.36372986 -56.234375 24.69921875 C-54 23 -54 23 -51.76953125 21.91796875 C-49.16949975 20.56916654 -48.96196479 18.69350141 -48 16 C-46.5 13.6875 -46.5 13.6875 -45 12 C-44.34 12 -43.68 12 -43 12 C-43.28875 12.556875 -43.5775 13.11375 -43.875 13.6875 C-45.0426519 15.97713921 -45.0426519 15.97713921 -45.84765625 18.3984375 C-50.8585389 29.71114205 -65.74192682 36.72862679 -76.6328125 41.04296875 C-81.26378892 42.35919755 -85.91996343 42.94321174 -90.6875 43.5625 C-92.56674192 43.81127948 -94.4456659 44.06247589 -96.32421875 44.31640625 C-97.15010498 44.42412354 -97.97599121 44.53184082 -98.8269043 44.64282227 C-101.17186131 44.9694113 -101.17186131 44.9694113 -104 46 C-106.51722444 46.01623075 -108.99866695 45.97509148 -111.51171875 45.87890625 C-112.23994339 45.85529526 -112.96816803 45.83168427 -113.71846008 45.80735779 C-116.0416784 45.7308565 -118.36455193 45.6467744 -120.6875 45.5625 C-122.26365507 45.50926573 -123.83982691 45.45652542 -125.41601562 45.40429688 C-129.2775616 45.27525978 -133.13881566 45.13942375 -137 45 C-136.7834375 45.68707031 -136.566875 46.37414062 -136.34375 47.08203125 C-136.0653125 47.98308594 -135.786875 48.88414062 -135.5 49.8125 C-135.2215625 50.70582031 -134.943125 51.59914063 -134.65625 52.51953125 C-134 55 -134 55 -134 58 C-133.34 58 -132.68 58 -132 58 C-131.86464844 58.65226562 -131.72929687 59.30453125 -131.58984375 59.9765625 C-130.23465172 65.47847984 -128.78918294 69.54782368 -124.1484375 73.00390625 C-118.41285027 75.66313306 -112.02591106 74.51877227 -106.1875 72.6875 C-102.6666587 71.3624522 -99.34779115 69.71472229 -96 68 C-95.34 68 -94.68 68 -94 68 C-94 67.34 -94 66.68 -94 66 C-91.36 65.67 -88.72 65.34 -86 65 C-86 64.34 -86 63.68 -86 63 C-84.824375 62.4225 -83.64875 61.845 -82.4375 61.25 C-79.60422843 59.8409129 -76.85070692 58.3567325 -74.125 56.75 C-71 55 -71 55 -69 55 C-68.67 54.01 -68.34 53.02 -68 52 C-66.3364521 51.32558869 -64.66933058 50.6599679 -63 50 C-62.38125 49.38125 -61.7625 48.7625 -61.125 48.125 C-57.67591251 44.67591251 -53.63624979 42.5454166 -49 41 C-49 40.34 -49 39.68 -49 39 C-46.98828125 37.66796875 -46.98828125 37.66796875 -44.3125 36.1875 C-40.25680051 33.83165768 -37.15761615 31.50846239 -34 28 C-28.46808511 22.15602837 -28.46808511 22.15602837 -25 21 C-24.319375 20.319375 -23.63875 19.63875 -22.9375 18.9375 C-22.298125 18.298125 -21.65875 17.65875 -21 17 C-20.34 17 -19.68 17 -19 17 C-18.938125 15.906875 -18.87625 14.81375 -18.8125 13.6875 C-18 10 -18 10 -15.75 8.1875 C-14.04164565 7.44980153 -12.31389957 6.75370754 -10.5625 6.125 C-8.16343632 5.07175253 -6.76716234 4.06398008 -4.8125 2.375 C-2 0 -2 0 0 0 Z " fill="#6C0406" transform="translate(328,286)"/>
<path d="M0 0 C8.4671621 -0.02323885 16.93431071 -0.0409737 25.40149689 -0.05181217 C29.33375684 -0.05701584 33.26599486 -0.06406747 37.19824219 -0.07543945 C40.99782017 -0.08635816 44.79737714 -0.09229577 48.5969696 -0.09487724 C50.04172598 -0.09671537 51.48648128 -0.1003046 52.93122864 -0.10573006 C60.02035617 -0.13127689 66.98428942 -0.13651365 74 1 C74 1.33 74 1.66 74 2 C50.57 2 27.14 2 3 2 C2.31911709 12.1953202 2.31911709 12.1953202 5 18 C5.32225283 19.82086222 5.57972276 21.65404363 5.78125 23.4921875 C5.90113281 24.52730469 6.02101562 25.56242187 6.14453125 26.62890625 C6.26183594 27.70011719 6.37914062 28.77132812 6.5 29.875 C7.22631919 36.45976184 7.99806318 42.67809424 10 49 C10.34256338 50.61892915 10.65678987 52.24420784 10.9375 53.875 C11.09863281 54.79925781 11.25976562 55.72351563 11.42578125 56.67578125 C11.61527344 57.77277344 11.80476562 58.86976563 12 60 C12.26344918 61.47281281 12.52783527 62.94545822 12.79296875 64.41796875 C13.07041368 65.96612771 13.34775747 67.51430479 13.625 69.0625 C13.82790649 70.18857666 13.82790649 70.18857666 14.03491211 71.33740234 C15 76.77246911 15 76.77246911 15 79 C35.13 78.67 55.26 78.34 76 78 C67.13839191 83.90773873 48.92393594 81.21769578 38.44067383 81.24023438 C35.64571566 81.25014821 32.85143385 81.28139544 30.05664062 81.3125 C28.27083762 81.31901363 26.48502948 81.32427049 24.69921875 81.328125 C23.45249641 81.3466452 23.45249641 81.3466452 22.18058777 81.36553955 C16.41243302 81.3430282 16.41243302 81.3430282 14.31010437 79.59448242 C11.76800902 76.50058666 11.14192837 72.55771109 10.125 68.75 C9.8681543 67.79851074 9.61130859 66.84702148 9.34667969 65.86669922 C5.89169468 52.44082345 3.9668435 38.70699328 2 25 C1.86577637 24.07703125 1.73155273 23.1540625 1.59326172 22.203125 C0.73676806 16.22814815 -0.03939194 10.34185349 -0.01635742 4.29443359 C-0.01399582 3.48879974 -0.01163422 2.68316589 -0.00920105 1.8531189 C-0.0061647 1.24158966 -0.00312836 0.63006042 0 0 Z " fill="#7E0305" transform="translate(164,221)"/>
<path d="M0 0 C1.55944336 0.1997644 1.55944336 0.1997644 3.15039062 0.40356445 C10.58263245 1.39410449 17.82587449 2.69460118 25.0625 4.6875 C21.17918968 6.02519559 17.39484777 5.6184827 13.375 5.3125 C12.34149414 5.24675781 12.34149414 5.24675781 11.28710938 5.1796875 C6.19412202 4.81912202 6.19412202 4.81912202 5.0625 3.6875 C2.94137958 3.47714095 0.81496581 3.31899899 -1.3125 3.1875 C-4.78842908 2.97169953 -7.6301476 2.7899508 -10.9375 1.6875 C-13.0591468 1.54195167 -15.18606706 1.46669588 -17.3125 1.4375 C-18.43398437 1.41171875 -19.55546875 1.3859375 -20.7109375 1.359375 C-25.41031242 1.83727753 -27.92798799 3.62030159 -31.125 7 C-34.70471342 12.30785093 -35.33419847 17.71483441 -35.6875 23.9375 C-35.77064453 25.01644531 -35.77064453 25.01644531 -35.85546875 26.1171875 C-35.97000696 27.97062393 -35.96247943 29.83069585 -35.9375 31.6875 C-30.30710074 37.31789926 -14.44518664 34.86110625 -6.6796875 34.93359375 C-4.23697479 34.96647336 -1.79426654 34.9996858 0.6484375 35.03320312 C4.44268282 35.08089063 8.23690285 35.1255052 12.03125 35.16430664 C15.73193497 35.20388236 19.43230198 35.25538518 23.1328125 35.30859375 C24.84055344 35.32121498 24.84055344 35.32121498 26.58279419 35.33409119 C28.16627151 35.35905418 28.16627151 35.35905418 29.78173828 35.38452148 C30.70769806 35.39482895 31.63365784 35.40513641 32.587677 35.41575623 C35.0625 35.6875 35.0625 35.6875 39.0625 37.6875 C13.3225 37.3575 -12.4175 37.0275 -38.9375 36.6875 C-42.2536068 26.73917961 -38.69966089 13.31412403 -34.25 4.25 C-26.01650067 -4.87360737 -10.86616563 -1.43770174 0 0 Z " fill="#810204" transform="translate(202.9375,158.3125)"/>
<path d="M0 0 C0.66 0 1.32 0 2 0 C1.71125 0.556875 1.4225 1.11375 1.125 1.6875 C-0.0426519 3.97713921 -0.0426519 3.97713921 -0.84765625 6.3984375 C-5.8585389 17.71114205 -20.74192682 24.72862679 -31.6328125 29.04296875 C-36.26378892 30.35919755 -40.91996343 30.94321174 -45.6875 31.5625 C-47.56674192 31.81127948 -49.4456659 32.06247589 -51.32421875 32.31640625 C-52.15010498 32.42412354 -52.97599121 32.53184082 -53.8269043 32.64282227 C-56.17186131 32.9694113 -56.17186131 32.9694113 -59 34 C-61.51722444 34.01623075 -63.99866695 33.97509148 -66.51171875 33.87890625 C-67.23994339 33.85529526 -67.96816803 33.83168427 -68.71846008 33.80735779 C-71.0416784 33.7308565 -73.36455193 33.6467744 -75.6875 33.5625 C-77.26365507 33.50926573 -78.83982691 33.45652542 -80.41601562 33.40429688 C-84.2775616 33.27525978 -88.13881566 33.13942375 -92 33 C-91.34 35.97 -90.68 38.94 -90 42 C-90.66 41.67 -91.32 41.34 -92 41 C-92.66796875 38.75 -92.66796875 38.75 -93.1875 36 C-93.36667969 35.0925 -93.54585937 34.185 -93.73046875 33.25 C-93.81941406 32.5075 -93.90835938 31.765 -94 31 C-92.44537323 29.44537323 -90.93818502 29.84468649 -88.77490234 29.81054688 C-87.87661713 29.79382935 -86.97833191 29.77711182 -86.05282593 29.7598877 C-85.07375275 29.74631226 -84.09467957 29.73273682 -83.0859375 29.71875 C-82.0829361 29.70034058 -81.07993469 29.68193115 -80.04653931 29.66296387 C-76.82275456 29.60401337 -73.59891436 29.5513408 -70.375 29.5 C-67.1725142 29.44849452 -63.97009778 29.39548266 -60.76773071 29.33703613 C-58.77217568 29.30061748 -56.77654391 29.26813133 -54.78085327 29.2401123 C-37.72604968 28.9292589 -20.85317226 22.33231987 -8.48828125 10.28515625 C-7 9 -7 9 -5 9 C-4.5978125 7.88625 -4.5978125 7.88625 -4.1875 6.75 C-3.04723249 4.10938051 -1.90619694 2.14447156 0 0 Z " fill="#870609" transform="translate(283,298)"/>
<path d="M0 0 C-0.33 0.99 -0.66 1.98 -1 3 C-1.66 3 -2.32 3 -3 3 C-3 3.66 -3 4.32 -3 5 C-3.66 5 -4.32 5 -5 5 C-5 5.66 -5 6.32 -5 7 C-5.66 7 -6.32 7 -7 7 C-7 7.66 -7 8.32 -7 9 C-7.66 9 -8.32 9 -9 9 C-9.25136719 9.58910156 -9.50273437 10.17820312 -9.76171875 10.78515625 C-11.15455401 13.27644202 -12.6208572 14.62300414 -14.8125 16.4375 C-17.13794319 18.4038981 -19.34379182 20.34379182 -21.5 22.5 C-31.84615385 32.84615385 -31.84615385 32.84615385 -38 33 C-36.56875447 29.64065168 -34.82271696 27.68207173 -32.0625 25.3125 C-31.37285156 24.71050781 -30.68320312 24.10851562 -29.97265625 23.48828125 C-28 22 -28 22 -25 21 C-24.319375 20.319375 -23.63875 19.63875 -22.9375 18.9375 C-22.298125 18.298125 -21.65875 17.65875 -21 17 C-20.34 17 -19.68 17 -19 17 C-18.938125 15.906875 -18.87625 14.81375 -18.8125 13.6875 C-18 10 -18 10 -15.75 8.1875 C-14.04164565 7.44980153 -12.31389957 6.75370754 -10.5625 6.125 C-8.16343632 5.07175253 -6.76716234 4.06398008 -4.8125 2.375 C-2 0 -2 0 0 0 Z " fill="#CF0408" transform="translate(328,286)"/>
<path d="M0 0 C0.33 0 0.66 0 1 0 C0.67 6.93 0.34 13.86 0 21 C1.32 20.67 2.64 20.34 4 20 C6.14356382 20.08069107 8.28497238 20.22947792 10.42138672 20.42211914 C17.37716983 20.98243894 24.28209457 21.18097851 31.2578125 21.24609375 C33.70052521 21.27897336 36.14323346 21.3121858 38.5859375 21.34570312 C42.38018282 21.39339063 46.17440285 21.4380052 49.96875 21.47680664 C53.66943497 21.51638236 57.36980198 21.56788518 61.0703125 21.62109375 C62.77805344 21.63371498 62.77805344 21.63371498 64.52029419 21.64659119 C66.10377151 21.67155418 66.10377151 21.67155418 67.71923828 21.69702148 C68.64519806 21.70732895 69.57115784 21.71763641 70.525177 21.72825623 C73 22 73 22 77 24 C51.26 23.67 25.52 23.34 -1 23 C-2.25145169 19.24564492 -1.90275212 15.94061397 -1.625 12.0625 C-1.58117187 11.34642578 -1.53734375 10.63035156 -1.4921875 9.89257812 C-1.26594385 6.50206561 -1.00357444 3.25736449 0 0 Z " fill="#7E0102" transform="translate(165,172)"/>
<path d="M0 0 C0.28875 0.598125 0.5775 1.19625 0.875 1.8125 C2.04742026 4.19327792 2.04742026 4.19327792 4 7 C4.66 11.29 5.32 15.58 6 20 C26.13 19.67 46.26 19.34 67 19 C58.13839191 24.90773873 39.92393594 22.21769578 29.44067383 22.24023438 C26.64571566 22.25014821 23.85143385 22.28139544 21.05664062 22.3125 C19.27083762 22.31901363 17.48502948 22.32427049 15.69921875 22.328125 C14.45249641 22.3466452 14.45249641 22.3466452 13.18058777 22.36553955 C7.43230773 22.34310577 7.43230773 22.34310577 5.33235168 20.67645264 C3.27352011 18.08589516 2.68672039 15.29363021 1.8125 12.125 C1.46832031 10.91070312 1.12414062 9.69640625 0.76953125 8.4453125 C0.10458018 5.46822193 -0.16686742 3.02662982 0 0 Z " fill="#690304" transform="translate(173,280)"/>
<path d="M0 0 C1.97303774 1.97303774 2.77145934 3.54291869 4 6 C6.46984724 8.46984724 7.18243167 8.25598548 10.58227539 8.2746582 C12.01000023 8.28895622 12.01000023 8.28895622 13.46656799 8.30354309 C14.49982712 8.30263168 15.53308624 8.30172028 16.59765625 8.30078125 C18.19280312 8.30720894 18.19280312 8.30720894 19.82017517 8.31376648 C22.07729378 8.31952019 24.33443094 8.32000242 26.59155273 8.31567383 C30.02425489 8.31253497 33.45607771 8.33588686 36.88867188 8.36132812 C39.08333225 8.3636033 41.27799493 8.3643036 43.47265625 8.36328125 C44.49174576 8.372491 45.51083527 8.38170074 46.56080627 8.39118958 C52.17408817 8.35528793 56.76536576 7.76464512 61.99095154 5.66178894 C65.35785714 4.55271619 68.48680639 4.80837126 72 5 C67.21478403 10.00272579 61.67980626 9.89410874 55.0295105 10.08547974 C51.6428929 10.11523661 48.25780804 10.11248874 44.87109375 10.09765625 C43.02572777 10.09553383 43.02572777 10.09553383 41.14308167 10.09336853 C37.24119563 10.08780285 33.33936848 10.07525671 29.4375 10.0625 C26.7805998 10.05691266 24.12370015 10.05291844 21.46679688 10.04882812 C14.97784473 10.03784466 8.48892658 10.02114094 2 10 C0.68373308 6.38026598 0 3.90432869 0 0 Z " fill="#A2050A" transform="translate(177,290)"/>
<path d="M0 0 C14.19 0 28.38 0 43 0 C43 0.33 43 0.66 43 1 C37.51936344 2.56818995 32.71590533 3.24698024 27 2.9765625 C25.91827515 2.93902359 25.91827515 2.93902359 24.81469727 2.90072632 C22.54258442 2.81946047 20.27146713 2.72252101 18 2.625 C16.44665344 2.56666443 14.89326765 2.50936346 13.33984375 2.453125 C9.55933764 2.31402372 5.77963954 2.16087631 2 2 C2.66 4.97 3.32 7.94 4 11 C3.34 10.67 2.68 10.34 2 10 C1.34 6.7 0.68 3.4 0 0 Z " fill="#A30405" transform="translate(189,329)"/>
<path d="M0 0 C2.9203265 2.46976184 3.90094358 4.91457489 5.125 8.5 C5.45757812 9.4590625 5.79015625 10.418125 6.1328125 11.40625 C7.55584786 15.66253595 8.16191905 18.93013703 8.1875 23.4375 C8.20167969 24.57058594 8.21585937 25.70367187 8.23046875 26.87109375 C8.01071135 29.85457979 7.55843386 31.49295423 6 34 C5.67 32.68 5.34 31.36 5 30 C4.34 30.66 3.68 31.32 3 32 C2.957279 30.33388095 2.95936168 28.66617115 3 27 C3.33 26.67 3.66 26.34 4 26 C3.95826229 18.98806463 3.23854992 12.42719859 0.62109375 5.90234375 C0 4 0 4 0 0 Z " fill="#C00507" transform="translate(259,238)"/>
<path d="M0 0 C7.77116308 -0.06948809 15.54225348 -0.12280502 23.31364918 -0.15543652 C26.92218303 -0.1710975 30.53050444 -0.19234315 34.13891602 -0.22631836 C37.62078122 -0.25889717 41.10244201 -0.27684975 44.58444786 -0.28463173 C46.56042097 -0.29287856 48.53631175 -0.31630038 50.51216125 -0.33988953 C52.31368904 -0.34022942 52.31368904 -0.34022942 54.15161133 -0.34057617 C55.21084305 -0.34723801 56.27007477 -0.35389984 57.36140442 -0.36076355 C60.41444316 0.05666499 61.0877512 0.68021444 63 3 C63.99 3.66 64.98 4.32 66 5 C65.30527588 4.8561084 64.61055176 4.7122168 63.89477539 4.56396484 C49.98900499 1.85482007 36.18908614 1.58504449 22.0625 1.375 C19.91469937 1.33672461 17.76691252 1.29766772 15.61914062 1.2578125 C10.4128752 1.16287663 5.20653847 1.0784761 0 1 C0 0.67 0 0.34 0 0 Z " fill="#EE1214" transform="translate(178,223)"/>
<path d="M0 0 C0 0.33 0 0.66 0 1 C-5.92656673 2.00626299 -11.7417553 2.21296217 -17.74609375 2.31640625 C-18.75720718 2.33718735 -19.76832062 2.35796844 -20.81007385 2.37937927 C-24.01915113 2.44442049 -27.22830568 2.50354727 -30.4375 2.5625 C-32.62175257 2.60572848 -34.80599752 2.64934411 -36.99023438 2.69335938 C-42.3267428 2.8000549 -47.66332696 2.90190309 -53 3 C-52.69378209 4.58379454 -52.38461016 6.16701809 -52.07421875 7.75 C-51.90237061 8.63171875 -51.73052246 9.5134375 -51.5534668 10.421875 C-51.07222829 12.66355061 -50.49181659 14.8123995 -49.8125 17 C-49 20 -49 20 -50 22 C-52.39710682 17.61652657 -53.7385731 13.57434324 -54.75 8.6875 C-55.01296875 7.45386719 -55.2759375 6.22023438 -55.546875 4.94921875 C-55.69640625 3.97597656 -55.8459375 3.00273437 -56 2 C-54.43456758 0.43456758 -52.87547336 0.8365181 -50.69897461 0.79467773 C-49.32635719 0.7647599 -49.32635719 0.7647599 -47.92601013 0.73423767 C-46.92820023 0.71752518 -45.93039032 0.70081268 -44.90234375 0.68359375 C-43.87951797 0.66281265 -42.8566922 0.64203156 -41.8028717 0.62062073 C-38.51448554 0.55502041 -35.22601429 0.49628774 -31.9375 0.4375 C-29.74543422 0.39430898 -27.55337674 0.3506945 -25.36132812 0.30664062 C-8.25051238 -0.0285948 -8.25051238 -0.0285948 0 0 Z " fill="#500102" transform="translate(243,326)"/>
<path d="M0 0 C0.66 0.33 1.32 0.66 2 1 C-17.32888631 16.83323666 -17.32888631 16.83323666 -25 17 C-25 16.34 -25 15.68 -25 15 C-24.0925 14.566875 -23.185 14.13375 -22.25 13.6875 C-19.07225128 12.15019164 -19.07225128 12.15019164 -16.75 10.3125 C-15 9 -15 9 -13 9 C-13 8.34 -13 7.68 -13 7 C-10.91796875 5.52734375 -10.91796875 5.52734375 -8.1875 3.9375 C-7.29417969 3.41027344 -6.40085937 2.88304687 -5.48046875 2.33984375 C-3 1 -3 1 0 0 Z " fill="#890507" transform="translate(292,318)"/>
<path d="M0 0 C0.66 0 1.32 0 2 0 C1.566875 0.8353125 1.566875 0.8353125 1.125 1.6875 C-0.04217633 3.97666051 -0.04217633 3.97666051 -0.84765625 6.39453125 C-3.87504694 13.23951291 -10.46746426 17.65467849 -16.82421875 21.1875 C-19.33837019 22.12635727 -21.33738684 22.14921825 -24 22 C-20.84665629 19.62755509 -17.67983628 17.27433023 -14.5 14.9375 C-13.5615625 14.24527344 -12.623125 13.55304688 -11.65625 12.83984375 C-9 11 -9 11 -6.72265625 9.90234375 C-4.16533089 8.56279237 -3.94752503 6.65307009 -3 4 C-1.5 1.6875 -1.5 1.6875 0 0 Z " fill="#7D0205" transform="translate(283,298)"/>
<path d="M0 0 C4.05299257 0.63444635 7.35921012 1.93910664 11.0625 3.6875 C12.75632812 4.48607422 12.75632812 4.48607422 14.484375 5.30078125 C19.68351104 7.813697 24.85190973 10.38421359 30 13 C30 13.33 30 13.66 30 14 C23.25 13.25 23.25 13.25 21 11 C18.97849471 10.15818335 16.9325229 9.3744921 14.875 8.625 C9.7177681 6.69604645 4.86294007 4.57449768 0 2 C0 1.34 0 0.68 0 0 Z " fill="#BA0D0E" transform="translate(289,184)"/>
<path d="M0 0 C0.66 0.33 1.32 0.66 2 1 C0.35700364 2.69599624 -1.30717069 4.35419372 -3 6 C-3.70125 6.68578125 -4.4025 7.3715625 -5.125 8.078125 C-12.49505396 15 -12.49505396 15 -18 15 C-15.87270299 10.10829673 -12.36295818 6.97652443 -8 4 C-5.50425672 3.19461943 -3.65118073 3.05523293 -1 3 C-0.67 2.01 -0.34 1.02 0 0 Z " fill="#940408" transform="translate(308,304)"/>
<path d="M0 0 C0.33 0 0.66 0 1 0 C2.61785594 10.04125803 2.61785594 10.04125803 0.1875 13.8125 C-0.534375 14.534375 -1.25625 15.25625 -2 16 C-3.25556887 19.17921787 -3.25556887 19.17921787 -4 22 C-4.66 22 -5.32 22 -6 22 C-6.103125 22.639375 -6.20625 23.27875 -6.3125 23.9375 C-6.539375 24.618125 -6.76625 25.29875 -7 26 C-7.99 26.33 -8.98 26.66 -10 27 C-8.98489019 23.61630062 -7.79655323 20.53711248 -6.125 17.4375 C-3.26454997 11.9209178 -1.70564287 5.9516049 0 0 Z " fill="#8E0307" transform="translate(295,271)"/>
<path d="M0 0 C1.1246311 3.39623698 1.02801696 3.9317848 -0.4375 7.5 C-8.99716564 23.33238855 -8.99716564 23.33238855 -14 25 C-13.67 23.02 -13.34 21.04 -13 19 C-12.34 19 -11.68 19 -11 19 C-11 17.68 -11 16.36 -11 15 C-10.01 14.34 -9.02 13.68 -8 13 C-7.67 12.01 -7.34 11.02 -7 10 C-6.360625 9.7525 -5.72125 9.505 -5.0625 9.25 C-2.59186846 8.05693866 -2.59186846 8.05693866 -1.8125 4.4375 C-1.544375 3.303125 -1.27625 2.16875 -1 1 C-0.67 0.67 -0.34 0.34 0 0 Z " fill="#C8060B" transform="translate(358,240)"/>
<path d="M0 0 C0.66 0.33 1.32 0.66 2 1 C1.38511719 1.65355469 1.38511719 1.65355469 0.7578125 2.3203125 C-0.05042969 3.21363281 -0.05042969 3.21363281 -0.875 4.125 C-1.40867188 4.70507812 -1.94234375 5.28515625 -2.4921875 5.8828125 C-6.38947855 11.35517454 -6.3912268 17.40727477 -6.625 23.875 C-6.66367188 24.75414062 -6.70234375 25.63328125 -6.7421875 26.5390625 C-6.83581034 28.69238793 -6.91896459 30.84616414 -7 33 C-7.66 33 -8.32 33 -9 33 C-9.34848842 8.99302017 -9.34848842 8.99302017 -5.625 4.375 C-3 2 -3 2 0 0 Z " fill="#A6070B" transform="translate(174,160)"/>
<path d="M0 0 C24.77626887 0.57471545 24.77626887 0.57471545 36 4 C32.11668968 5.33769559 28.33234777 4.9309827 24.3125 4.625 C23.27899414 4.55925781 23.27899414 4.55925781 22.22460938 4.4921875 C17.13162202 4.13162202 17.13162202 4.13162202 16 3 C12.70315145 2.71390984 9.40618875 2.55109853 6.1015625 2.37890625 C3 2 3 2 0 0 Z " fill="#A70508" transform="translate(192,159)"/>
<path d="M0 0 C0.99 0.495 0.99 0.495 2 1 C2.22523024 4.62415933 2.42731308 8.24924219 2.625 11.875 C2.68945312 12.90753906 2.75390625 13.94007813 2.8203125 15.00390625 C2.871875 15.99003906 2.9234375 16.97617187 2.9765625 17.9921875 C3.02893066 18.90339355 3.08129883 19.81459961 3.13525391 20.75341797 C3 23 3 23 1 25 C0 24 0 24 -0.11352539 21.68334961 C-0.10828857 20.68311768 -0.10305176 19.68288574 -0.09765625 18.65234375 C-0.09443359 17.57275391 -0.09121094 16.49316406 -0.08789062 15.38085938 C-0.07951172 14.24455078 -0.07113281 13.10824219 -0.0625 11.9375 C-0.05798828 10.79732422 -0.05347656 9.65714844 -0.04882812 8.48242188 C-0.03699747 5.65489649 -0.0205141 2.8274736 0 0 Z " fill="#E3090A" transform="translate(297,248)"/>
<path d="M0 0 C3.7602985 0.58107632 6.53035032 1.65199496 9.8125 3.5625 C10.60269531 4.01753906 11.39289063 4.47257813 12.20703125 4.94140625 C12.79871094 5.29074219 13.39039063 5.64007813 14 6 C14 6.66 14 7.32 14 8 C15.4540625 8.433125 15.4540625 8.433125 16.9375 8.875 C20 10 20 10 21 12 C19.35 12 17.7 12 16 12 C15.67 11.34 15.34 10.68 15 10 C14.01 9.67 13.02 9.34 12 9 C12 8.34 12 7.68 12 7 C10.02 6.34 8.04 5.68 6 5 C6 4.34 6 3.68 6 3 C4.02 2.34 2.04 1.68 0 1 C0 0.67 0 0.34 0 0 Z " fill="#9E090A" transform="translate(320,199)"/>
<path d="M0 0 C1.1323975 0.73878339 2.2556547 1.49158645 3.375 2.25 C4.00148438 2.66765625 4.62796875 3.0853125 5.2734375 3.515625 C7.30087898 5.25867424 8.10081074 6.48227008 9 9 C9.1953125 11.796875 9.1953125 11.796875 9.125 14.75 C9.10695313 15.73484375 9.08890625 16.7196875 9.0703125 17.734375 C9.03550781 18.85585937 9.03550781 18.85585937 9 20 C8.67 20 8.34 20 8 20 C8 17.03 8 14.06 8 11 C7.01 10.67 6.02 10.34 5 10 C3.61328125 8.22265625 3.61328125 8.22265625 2.3125 6.0625 C1.87550781 5.35222656 1.43851562 4.64195312 0.98828125 3.91015625 C0 2 0 2 0 0 Z " fill="#C9060A" transform="translate(351,220)"/>
<path d="M0 0 C0.66 0.33 1.32 0.66 2 1 C1.48050781 1.44730469 0.96101563 1.89460938 0.42578125 2.35546875 C-0.27160156 2.96003906 -0.96898437 3.56460937 -1.6875 4.1875 C-2.42097656 4.82171875 -3.15445312 5.4559375 -3.91015625 6.109375 C-6.17393064 8.0902577 -6.17393064 8.0902577 -8.625 10.9375 C-11 13 -11 13 -14.3125 13.3125 C-15.6428125 13.1578125 -15.6428125 13.1578125 -17 13 C-12.86981676 9.87789466 -8.66273768 6.86446399 -4.4609375 3.83984375 C-1.98456176 2.07984937 -1.98456176 2.07984937 0 0 Z " fill="#760203" transform="translate(276,307)"/>
<path d="M0 0 C-5 3 -5 3 -10 6 C-10.87269531 6.58136719 -11.74539062 7.16273438 -12.64453125 7.76171875 C-13.42183594 8.17035156 -14.19914063 8.57898438 -15 9 C-15.99 8.67 -16.98 8.34 -18 8 C-11.25 4 -11.25 4 -9 4 C-9 3.01 -9 2.02 -9 1 C-5.47051709 -0.66670026 -3.71727674 -1.13583456 0 0 Z " fill="#5E0304" transform="translate(251,348)"/>
<path d="M0 0 C0.66 0.33 1.32 0.66 2 1 C-2.93376753 4.88402976 -7.73081388 7.86436185 -14 9 C-16.26953125 8.5703125 -16.26953125 8.5703125 -18 8 C-16.06532058 7.16013916 -14.12714871 6.32831973 -12.1875 5.5 C-11.10855469 5.0359375 -10.02960938 4.571875 -8.91796875 4.09375 C-6 3 -6 3 -3 3 C-3 2.34 -3 1.68 -3 1 C-2.01 0.67 -1.02 0.34 0 0 Z " fill="#A0060B" transform="translate(262,319)"/>
<path d="M0 0 C6.35987804 -0.20190089 11.85221129 0.3722167 18 2 C18 2.99 18 3.98 18 5 C11.9490696 3.83445193 5.96533774 2.54656904 0 1 C0 0.67 0 0.34 0 0 Z " fill="#BE0506" transform="translate(242,196)"/>
<path d="M0 0 C3.69373527 0.58287667 6.49881745 1.59916356 9.75 3.4375 C10.52859375 3.86933594 11.3071875 4.30117187 12.109375 4.74609375 C14 6 14 6 15 8 C9.43820225 8.37078652 9.43820225 8.37078652 7.375 6.625 C6.92125 6.08875 6.4675 5.5525 6 5 C3.90010348 3.82425289 3.90010348 3.82425289 2 3 C2 2.34 2 1.68 2 1 C1.34 0.67 0.68 0.34 0 0 Z " fill="#B60A0E" transform="translate(238,223)"/>
<path d="M0 0 C6 2 12 4 18 6 C18 6.33 18 6.66 18 7 C11.18012971 6.56699236 6.08356979 5.09212176 0 2 C0 1.34 0 0.68 0 0 Z " fill="#EA0D13" transform="translate(260,174)"/>
<path d="M0 0 C-1.89192475 0.98669759 -3.78871978 1.9640602 -5.6875 2.9375 C-6.74324219 3.48277344 -7.79898438 4.02804687 -8.88671875 4.58984375 C-11.66234047 5.8470576 -14.00272126 6.56069569 -17 7 C-15.48065294 3.96130589 -13.01995228 3.35589694 -10 2 C-9.34 2 -8.68 2 -8 2 C-8 1.34 -8 0.68 -8 0 C-4.71303767 -0.79953138 -3.28976808 -1.09658936 0 0 Z " fill="#85060A" transform="translate(242,352)"/>
<path d="M0 0 C0.66 0.33 1.32 0.66 2 1 C-8.37357631 9.6309795 -8.37357631 9.6309795 -14 12 C-14 11.34 -14 10.68 -14 10 C-13.34 10 -12.68 10 -12 10 C-12 9.34 -12 8.68 -12 8 C-11.071875 7.5875 -10.14375 7.175 -9.1875 6.75 C-6.04943076 5.02713845 -4.98851034 3.84072906 -3 1 C-2.01 0.67 -1.02 0.34 0 0 Z " fill="#6B0305" transform="translate(292,318)"/>
<path d="M0 0 C0.33 0 0.66 0 1 0 C1.30485617 1.72349377 1.56754187 3.45447848 1.8125 5.1875 C1.96332031 6.15042969 2.11414063 7.11335938 2.26953125 8.10546875 C2 11 2 11 -3 16 C-2.01 10.72 -1.02 5.44 0 0 Z " fill="#AE0609" transform="translate(295,271)"/>
<path d="M0 0 C5.52631579 -0.36842105 5.52631579 -0.36842105 7.6875 1.3125 C8.120625 1.869375 8.55375 2.42625 9 3 C9.556875 3.556875 10.11375 4.11375 10.6875 4.6875 C11.3371875 5.3371875 11.3371875 5.3371875 12 6 C11.34 6.66 10.68 7.32 10 8 C9.67 7.34 9.34 6.68 9 6 C8.01 5.67 7.02 5.34 6 5 C6 4.34 6 3.68 6 3 C5.195625 2.87625 4.39125 2.7525 3.5625 2.625 C2.716875 2.41875 1.87125 2.2125 1 2 C0.67 1.34 0.34 0.68 0 0 Z " fill="#E60E12" transform="translate(315,198)"/>
<path d="M0 0 C0.66 0.33 1.32 0.66 2 1 C1.04882866 2.1725131 0.08882991 3.33787015 -0.875 4.5 C-1.40867188 5.1496875 -1.94234375 5.799375 -2.4921875 6.46875 C-2.98976562 6.9740625 -3.48734375 7.479375 -4 8 C-4.66 8 -5.32 8 -6 8 C-6.66 9.32 -7.32 10.64 -8 12 C-7.92303847 8.76761586 -7.62561345 6.66772205 -5.375 4.265625 C-3.62229929 2.78148327 -1.84920638 1.36155666 0 0 Z " fill="#93050A" transform="translate(174,160)"/>
<path d="M0 0 C3.32637022 2.69277589 4.58473125 6.03724749 6 10 C5.67 10.99 5.34 11.98 5 13 C4.15615325 11.58957044 3.32530504 10.17135868 2.5 8.75 C2.0359375 7.96109375 1.571875 7.1721875 1.09375 6.359375 C0 4 0 4 0 0 Z " fill="#A30A09" transform="translate(259,238)"/>
<path d="M0 0 C0.33 0.66 0.66 1.32 1 2 C0.34 2 -0.32 2 -1 2 C-1.226875 2.556875 -1.45375 3.11375 -1.6875 3.6875 C-3.35896766 6.63246684 -5.55276352 8.68156544 -8 11 C-8.66 10.67 -9.32 10.34 -10 10 C-8.52861945 6.12090583 -6.54638875 4.98943759 -3 3 C-1.24850835 1.41754725 -1.24850835 1.41754725 0 0 Z " fill="#790202" transform="translate(320,293)"/>
<path d="M0 0 C0.85276722 2.41707906 1.12087895 3.64003451 0.29296875 6.10546875 C-0.25423828 7.13607422 -0.25423828 7.13607422 -0.8125 8.1875 C-1.34810547 9.22970703 -1.34810547 9.22970703 -1.89453125 10.29296875 C-3 12 -3 12 -5 13 C-4.32116957 9.88452559 -3.25893098 7.14862279 -1.9375 4.25 C-1.57527344 3.45078125 -1.21304687 2.6515625 -0.83984375 1.828125 C-0.56269531 1.22484375 -0.28554688 0.6215625 0 0 Z " fill="#9D0606" transform="translate(358,240)"/>
<path d="M0 0 C0.66 0 1.32 0 2 0 C2 2.97 2 5.94 2 9 C1.34 9 0.68 9 0 9 C-1.125 3.375 -1.125 3.375 0 0 Z " fill="#E7090B" transform="translate(357,231)"/>
<path d="M0 0 C0.33 0.99 0.66 1.98 1 3 C1.66 3 2.32 3 3 3 C3.33 5.64 3.66 8.28 4 11 C1.9656541 9.58480285 1.09589607 8.45017877 0.578125 6.01953125 C0.33726048 4.01823046 0.16467259 2.0090056 0 0 Z " fill="#810607" transform="translate(193,341)"/>
<path d="M0 0 C0.66 0.33 1.32 0.66 2 1 C-0.80804268 3.96404505 -3.18315774 6.44499019 -7 8 C-6.34 6.35 -5.68 4.7 -5 3 C-3.68 3 -2.36 3 -1 3 C-0.67 2.01 -0.34 1.02 0 0 Z " fill="#840304" transform="translate(308,304)"/>
<path d="M0 0 C0 3 0 3 -1.53125 4.60546875 C-2.1809375 5.12753906 -2.830625 5.64960938 -3.5 6.1875 C-4.1496875 6.71730469 -4.799375 7.24710937 -5.46875 7.79296875 C-5.9740625 8.19128906 -6.479375 8.58960938 -7 9 C-7.66 8.67 -8.32 8.34 -9 8 C-6.03 5.36 -3.06 2.72 0 0 Z " fill="#AA080D" transform="translate(278,307)"/>
<path d="M0 0 C-0.33 0.99 -0.66 1.98 -1 3 C-1.66 3 -2.32 3 -3 3 C-3 3.66 -3 4.32 -3 5 C-3.66 5 -4.32 5 -5 5 C-5 5.66 -5 6.32 -5 7 C-5.66 7 -6.32 7 -7 7 C-6.61402985 4.20171644 -6.19863427 3.1794116 -4.0625 1.25 C-2 0 -2 0 0 0 Z " fill="#930404" transform="translate(328,286)"/>
<path d="M0 0 C-0.3125 2.375 -0.3125 2.375 -1 5 C-1.99 5.66 -2.98 6.32 -4 7 C-4 5.02 -4 3.04 -4 1 C-2 0 -2 0 0 0 Z " fill="#BA0608" transform="translate(342,267)"/>
<path d="M0 0 C0.33 0.99 0.66 1.98 1 3 C-0.21484375 4.82421875 -0.21484375 4.82421875 -1.9375 6.6875 C-2.50339844 7.31011719 -3.06929688 7.93273437 -3.65234375 8.57421875 C-4.09707031 9.04472656 -4.54179687 9.51523437 -5 10 C-5.33 9.01 -5.66 8.02 -6 7 C-4.1875 4.3125 -4.1875 4.3125 -2 2 C-1.34 2 -0.68 2 0 2 C0 1.34 0 0.68 0 0 Z " fill="#BC060B" transform="translate(288,295)"/>
<path d="M0 0 C3.34373475 0.55728913 6.03312999 1.35173889 9 3 C9 3.33 9 3.66 9 4 C2.25 3.125 2.25 3.125 0 2 C0 1.34 0 0.68 0 0 Z " fill="#B30D0E" transform="translate(289,184)"/>
<path d="M0 0 C0.99 0.33 1.98 0.66 3 1 C0.47043472 4.0916909 -2.22454612 4.90931332 -6 6 C-6 5.34 -6 4.68 -6 4 C-3.1875 1.8125 -3.1875 1.8125 0 0 Z " fill="#A20709" transform="translate(285,321)"/>
<path d="M0 0 C0.66 0 1.32 0 2 0 C0.71700242 2.86207152 -0.530636 5.0245088 -3 7 C-3.99 7 -4.98 7 -6 7 C-6 6.34 -6 5.68 -6 5 C-5.195625 4.731875 -4.39125 4.46375 -3.5625 4.1875 C-2.716875 3.795625 -1.87125 3.40375 -1 3 C-0.67 2.01 -0.34 1.02 0 0 Z " fill="#B4080A" transform="translate(310,300)"/>
<path d="M0 0 C0.99 0.33 1.98 0.66 3 1 C1.35 2.65 -0.3 4.3 -2 6 C-2.33 5.01 -2.66 4.02 -3 3 C-2.01 2.01 -1.02 1.02 0 0 Z " fill="#B5070C" transform="translate(300,308)"/>
<path d="M0 0 C1.31554985 0.4495045 2.62738358 0.90989716 3.9375 1.375 C5.03384766 1.75785156 5.03384766 1.75785156 6.15234375 2.1484375 C8 3 8 3 9 5 C7.35 5 5.7 5 4 5 C3.67 4.34 3.34 3.68 3 3 C2.01 2.67 1.02 2.34 0 2 C0 1.34 0 0.68 0 0 Z " fill="#BC0E0E" transform="translate(332,206)"/>
<path d="M0 0 C5.75 0.875 5.75 0.875 8 2 C8 2.66 8 3.32 8 4 C8.66 4.33 9.32 4.66 10 5 C5.59885603 4.49701212 3.28804981 2.91227269 0 0 Z " fill="#E90F16" transform="translate(281,182)"/>
</svg>
